<?xml version="1.0"?>
<svg xmlns="http://www.w3.org/2000/svg" xmlns:xlink="http://www.w3.org/1999/xlink" version="1.1" id="Capa_1" x="0px" y="0px" viewBox="0 0 512 512" style="enable-background:new 0 0 512 512;" xml:space="preserve" width="512px" height="512px" class=""><g><path style="fill:#303C42;" d="M501.333,341.333h-33.401c0.719-3.517,1.401-7.053,1.401-10.667  c0-27.875-21.479-50.823-48.771-53.135c-9.146-16.031-28.438-24.865-46.458-20.313c-15.25-21.542-47.104-28.854-70.125-15.26  c-17.934-10.577-40.996-8.466-57.624,3.228l-36.897-29.52c-2.208-1.76-5.021-2.521-7.854-2.271  c-2.813,0.313-5.375,1.729-7.146,3.938l-39.962,49.97l-8.142-8.168c-2-2-4.729-3.135-7.563-3.135s-5.542,1.125-7.542,3.125  l-82.208,82.208H10.667C4.771,341.333,0,346.104,0,352c0,41.167,33.5,74.667,74.667,74.667h362.667  C478.5,426.667,512,393.167,512,352C512,346.104,507.229,341.333,501.333,341.333z" data-original="#303C42" class=""/><path style="fill:#8BC249;" d="M297.271,263.219c3.917,3.146,9.5,3.156,13.417-0.01c15.833-12.813,40.771-6.49,49.021,11.573  c1.229,2.656,3.479,4.698,6.229,5.646s5.792,0.74,8.396-0.615c11.833-6.146,25.167-0.021,29.375,11.958  c1.5,4.271,7.021,6.917,11.646,6.917c17.667,0.083,32.667,14.125,32.646,31.979c0,3.674-0.848,7.232-2.064,10.667H181.333  c0-11.76,9.563-21.333,21.333-21.333c5.896,0,10.667-4.771,10.667-10.667c0-16.083,12.146-29.656,28.229-31.563  c3.396-0.406,6.375-2.396,8.042-5.354C258.938,255.896,282.229,251.042,297.271,263.219z" data-original="#8BC249" class=""/><path style="opacity:0.2;fill:#FFFFFF;enable-background:new    ;" d="M202.667,333.711c5.896,0,10.667-4.771,10.667-10.667  c0-16.083,12.146-29.656,28.229-31.563c3.396-0.406,6.375-2.396,8.042-5.354c9.333-16.521,32.625-21.375,47.667-9.198  c3.917,3.146,9.5,3.156,13.417-0.01c15.833-12.813,40.771-6.49,49.021,11.573c1.229,2.656,3.479,4.698,6.229,5.646  s5.792,0.74,8.396-0.615c11.833-6.146,25.167-0.021,29.375,11.958c1.5,4.271,7.021,6.917,11.646,6.917  c15.208,0.072,28.382,10.514,31.755,24.802c0.516-2.139,0.891-4.307,0.891-6.534c0.021-17.854-14.979-31.896-32.646-31.979  c-4.625,0-10.146-2.646-11.646-6.917c-4.208-11.979-17.542-18.104-29.375-11.958c-2.604,1.354-5.646,1.563-8.396,0.615  s-5-2.99-6.229-5.646c-8.25-18.063-33.188-24.385-49.021-11.573c-3.917,3.167-9.5,3.156-13.417,0.01  c-15.042-12.177-38.333-7.323-47.667,9.198c-1.667,2.958-4.646,4.948-8.042,5.354c-16.083,1.906-28.229,15.479-28.229,31.563  c0,5.896-4.771,10.667-10.667,10.667c-11.771,0-21.333,9.573-21.333,21.333h5.332C190.579,336.766,196.189,333.711,202.667,333.711z  " data-original="#FFFFFF"/><path style="fill:#FFCB29;" d="M204.458,238.99l25.117,20.103c-18.844,5.88-33.184,21.35-36.721,40.71  c-1.549,0.366-3.01,0.941-4.491,1.473l-18.703-18.762L204.458,238.99z" data-original="#FFCB29"/><path style="opacity:0.2;fill:#FFFFFF;enable-background:new    ;" d="M204.458,250.617l15.921,12.742  c2.978-1.578,5.911-3.242,9.197-4.267l-25.117-20.103l-34.798,43.523l5.159,5.174L204.458,250.617z" data-original="#FFFFFF"/><path style="fill:#FFCB29;" d="M138.771,281.76l31.678,31.779C163.986,321.02,160,330.693,160,341.333H79.206L138.771,281.76z" data-original="#FFCB29"/><path style="opacity:0.2;fill:#FFFFFF;enable-background:new    ;" d="M138.771,294.76l26.457,26.54  c1.499-2.759,3.182-5.401,5.221-7.762l-31.678-31.779l-59.565,59.573h12.999L138.771,294.76z" data-original="#FFFFFF"/><path style="fill:#F3F3F3;" d="M437.333,405.333H74.667c-25.75,0-47.313-18.354-52.271-42.667h467.208  C484.646,386.979,463.083,405.333,437.333,405.333z" data-original="#F3F3F3" class=""/><path style="opacity: 0.1;fill:#00AFFF" d="M446.98,362.667c-9.245,15.906-26.413,26.667-46.091,26.667  H38.223c-0.509,0-0.987-0.118-1.493-0.133c9.688,9.874,23.051,16.133,37.938,16.133h362.667c25.75,0,47.313-18.354,52.271-42.667  H446.98z" data-original="#010101" class="active-path" data-old_color="opacity: 0.1#00AFFF"/><g>
	<path style="fill:#303C42;" d="M128,181.333c0,5.896,4.771,10.667,10.667,10.667s10.667-4.771,10.667-10.667   c0-13.188-3.583-20.344-6.458-26.104c-2.438-4.885-4.208-8.417-4.208-16.563s1.771-11.677,4.208-16.563   c2.875-5.76,6.458-12.917,6.458-26.104c0-5.896-4.771-10.667-10.667-10.667S128,90.104,128,96c0,8.146-1.771,11.677-4.208,16.563   c-2.875,5.76-6.458,12.917-6.458,26.104s3.583,20.344,6.458,26.104C126.229,169.656,128,173.188,128,181.333z" data-original="#303C42" class=""/>
	<path style="fill:#303C42;" d="M256,181.333c0,5.896,4.771,10.667,10.667,10.667c5.896,0,10.667-4.771,10.667-10.667   c0-13.188-3.583-20.344-6.458-26.104c-2.438-4.885-4.208-8.417-4.208-16.563s1.771-11.677,4.208-16.563   c2.875-5.76,6.458-12.917,6.458-26.104c0-5.896-4.771-10.667-10.667-10.667C260.771,85.333,256,90.104,256,96   c0,8.146-1.771,11.677-4.208,16.563c-2.875,5.76-6.458,12.917-6.458,26.104s3.583,20.344,6.458,26.104   C254.229,169.656,256,173.188,256,181.333z" data-original="#303C42" class=""/>
	<path style="fill:#303C42;" d="M384,181.333c0,5.896,4.771,10.667,10.667,10.667c5.896,0,10.667-4.771,10.667-10.667   c0-13.188-3.583-20.344-6.458-26.104c-2.438-4.885-4.208-8.417-4.208-16.563s1.771-11.677,4.208-16.563   c2.875-5.76,6.458-12.917,6.458-26.104c0-5.896-4.771-10.667-10.667-10.667C388.771,85.333,384,90.104,384,96   c0,8.146-1.771,11.677-4.208,16.563c-2.875,5.76-6.458,12.917-6.458,26.104s3.583,20.344,6.458,26.104   C382.229,169.656,384,173.188,384,181.333z" data-original="#303C42" class=""/>
</g><linearGradient id="SVGID_1_" gradientUnits="userSpaceOnUse" x1="-43.1163" y1="637.7867" x2="-23.064" y2="628.4351" gradientTransform="matrix(21.3333 0 0 -21.3333 996.3334 13791.667)">
	<stop offset="0" style="stop-color:#FFFFFF;stop-opacity:0.2"/>
	<stop offset="1" style="stop-color:#FFFFFF;stop-opacity:0"/>
</linearGradient></g> </svg>
